<?xml version="1.0" encoding="UTF-8" standalone="no"?>
<!-- Created with Inkscape (http://www.inkscape.org/) -->

<svg
   xmlns:dc="http://purl.org/dc/elements/1.1/"
   xmlns:cc="http://creativecommons.org/ns#"
   xmlns:rdf="http://www.w3.org/1999/02/22-rdf-syntax-ns#"
   xmlns:svg="http://www.w3.org/2000/svg"
   xmlns="http://www.w3.org/2000/svg"
   xmlns:sodipodi="http://sodipodi.sourceforge.net/DTD/sodipodi-0.dtd"
   xmlns:inkscape="http://www.inkscape.org/namespaces/inkscape"
   width="400"
   height="131"
   viewBox="0 0 105.83333 34.660418"
   version="1.1"
   id="svg955"
   inkscape:version="0.92.5 (2060ec1f9f, 2020-04-08)"
   sodipodi:docname="staff.svg"
   inkscape:export-filename="C:\Data\GitLab\Khula\khula-content\exercises\30000\images\bitmap.png"
   inkscape:export-xdpi="115.969"
   inkscape:export-ydpi="115.969">
  <defs
     id="defs949" />
  <sodipodi:namedview
     id="base"
     pagecolor="#ffffff"
     bordercolor="#666666"
     borderopacity="1.0"
     inkscape:pageopacity="0.0"
     inkscape:pageshadow="2"
     inkscape:zoom="1.4"
     inkscape:cx="181.67743"
     inkscape:cy="-81.940745"
     inkscape:document-units="px"
     inkscape:current-layer="layer1"
     showgrid="false"
     units="px"
     inkscape:window-width="2400"
     inkscape:window-height="1261"
     inkscape:window-x="2391"
     inkscape:window-y="-9"
     inkscape:window-maximized="1" />
  <metadata
     id="metadata952">
    <rdf:RDF>
      <cc:Work
         rdf:about="">
        <dc:format>image/svg+xml</dc:format>
        <dc:type
           rdf:resource="http://purl.org/dc/dcmitype/StillImage" />
        <dc:title></dc:title>
      </cc:Work>
    </rdf:RDF>
  </metadata>
  <g
     inkscape:label="Layer 1"
     inkscape:groupmode="layer"
     id="layer1"
     transform="translate(0,-262.33955)">
    <g
       id="g1540"
       transform="translate(-47.624863,84.040841)">
      <path
         style="stroke-width:0.26458332"
         id="path4"
         d="m 57.97034,202.6197 c -0.50218,-0.90038 -1.76027,-4.31853 1.35678,-5.13027 1.24884,-0.32518 2.4175,0.38338 2.91492,1.26444 0.51064,0.90355 1.02896,4.39367 -2.4646,5.40094 -1.47955,0.42677 -3.83857,-0.14288 -4.88685,-1.28614 -3.55759,-3.87932 0.0688,-7.48903 0.51435,-8.01608 1.65021,-1.95025 7.90893,-5.31548 6.38043,-13.8684 -0.13917,-0.77894 -0.449,-1.63513 -1.08056,-2.15001 -1.12025,-0.9136 -2.30055,-0.0479 -3.00646,0.86546 -0.87022,1.12553 -1.23084,3.61103 -1.15729,4.99374 0.25427,4.77097 1.80234,9.57792 1.86452,9.90256 0.10716,0.55695 1.41684,5.54699 1.52188,5.89413 1.67191,5.52979 1.68487,7.51257 1.42849,9.2911 -0.29977,2.0791 -3.18479,3.58193 -4.55745,1.59253 0.48128,0.0579 1.7145,-0.53737 1.6084,-1.81504 -0.13785,-1.65444 -1.58538,-1.99919 -2.68843,-1.47056 -1.04828,0.50218 -1.3081,1.99999 -0.62045,3.19352 0.78132,1.35573 3.26285,2.18282 5.03185,1.33271 3.89943,-1.87351 0.73369,-11.08472 0.25294,-12.68333 -0.53896,-1.79149 -3.46657,-11.79063 -3.05594,-15.85251 0.20664,-2.04496 1.72323,-3.99812 2.78025,-3.03292 1.14405,1.04431 0.89587,3.0099 0.73501,3.69888 -0.51753,2.218 -2.03941,3.96451 -3.67639,5.44512 -1.58882,1.43722 -3.4544,3.21125 -4.48072,5.12366 -1.1213,2.09021 -0.94403,5.51762 0.66649,7.4213 0.54901,0.64902 1.93014,1.99919 4.04389,2.2979 3.16283,0.44688 7.58031,-1.03531 7.2607,-5.72108 -0.28126,-4.12089 -5.07339,-5.21547 -7.44511,-3.24962 -0.53869,0.44662 -1.00674,1.06231 -1.26127,1.75181 -0.67654,1.8333 0.14711,4.28493 2.02062,4.80616 z"
         inkscape:connector-curvature="0" />
      <g
         id="g26"
         transform="matrix(0.26458333,0,0,0.26458333,41.01028,170.46912)">
        <g
           id="g8">
          <rect
             id="rect6"
             height="3"
             width="400.00101"
             y="56.27"
             x="25" />
        </g>
        <g
           id="g12">
          <rect
             id="rect10"
             height="3"
             width="400.00101"
             y="75.240997"
             x="25" />
        </g>
        <g
           id="g16">
          <rect
             id="rect14"
             height="3"
             width="400.00101"
             y="94.212997"
             x="25" />
        </g>
        <g
           id="g20">
          <rect
             id="rect18"
             height="3"
             width="400.00101"
             y="113.184"
             x="25" />
        </g>
        <g
           id="g24">
          <rect
             id="rect22"
             height="3"
             width="400.00101"
             y="132.157"
             x="25" />
        </g>
      </g>
    </g>
  </g>
</svg>
